<mxfile host="app.diagrams.net" modified="2023-09-10T14:24:11.850Z" agent="Mozilla/5.0 (Windows NT 10.0; WOW64) AppleWebKit/537.36 (KHTML, like Gecko) Chrome/86.0.4240.198 Safari/537.36" etag="h-zozLjhu90n0z2e69vq" version="21.7.4" type="device">
  <diagram name="Page-1" id="9f46799a-70d6-7492-0946-bef42562c5a5">
    <mxGraphModel dx="1635" dy="843" grid="1" gridSize="10" guides="1" tooltips="1" connect="1" arrows="1" fold="1" page="1" pageScale="1" pageWidth="1100" pageHeight="850" background="none" math="0" shadow="0">
      <root>
        <mxCell id="0" />
        <mxCell id="1" parent="0" />
        <mxCell id="8fZIvYmPOum_CmRB5fbJ-8" style="edgeStyle=orthogonalEdgeStyle;rounded=0;orthogonalLoop=1;jettySize=auto;html=1;exitX=0.25;exitY=1;exitDx=0;exitDy=0;entryX=0.5;entryY=0;entryDx=0;entryDy=0;strokeColor=#FFFFFF;strokeWidth=2;labelBorderColor=none;" edge="1" parent="1" source="EgmdG9dv3meoYVeIgGDk-13" target="EgmdG9dv3meoYVeIgGDk-16">
          <mxGeometry relative="1" as="geometry" />
        </mxCell>
        <mxCell id="EgmdG9dv3meoYVeIgGDk-13" value="登陆系统" style="rounded=0;html=1;strokeColor=#FFFFFF;strokeWidth=2;labelBorderColor=none;fillColor=#000000;fontColor=#FFFFFF;" parent="1" vertex="1">
          <mxGeometry x="615.62" y="90" width="55" height="60" as="geometry" />
        </mxCell>
        <mxCell id="EgmdG9dv3meoYVeIgGDk-15" style="edgeStyle=orthogonalEdgeStyle;rounded=0;orthogonalLoop=1;jettySize=auto;html=1;exitX=0.5;exitY=1;exitDx=0;exitDy=0;strokeColor=#FFFFFF;strokeWidth=2;labelBorderColor=none;" parent="1" source="EgmdG9dv3meoYVeIgGDk-14" target="EgmdG9dv3meoYVeIgGDk-13" edge="1">
          <mxGeometry relative="1" as="geometry" />
        </mxCell>
        <mxCell id="EgmdG9dv3meoYVeIgGDk-14" value="综合体育场管理系统" style="html=1;strokeColor=#FFFFFF;strokeWidth=2;labelBorderColor=none;fontColor=#FFFFFF;fillColor=#000000;" parent="1" vertex="1">
          <mxGeometry x="583.12" y="10" width="120" height="60" as="geometry" />
        </mxCell>
        <mxCell id="EgmdG9dv3meoYVeIgGDk-211" style="edgeStyle=orthogonalEdgeStyle;rounded=0;orthogonalLoop=1;jettySize=auto;html=1;exitX=0.5;exitY=1;exitDx=0;exitDy=0;strokeColor=#FFFFFF;strokeWidth=2;labelBorderColor=none;fontColor=#FFFFFF;" parent="1" source="EgmdG9dv3meoYVeIgGDk-16" target="EgmdG9dv3meoYVeIgGDk-205" edge="1">
          <mxGeometry relative="1" as="geometry" />
        </mxCell>
        <mxCell id="EgmdG9dv3meoYVeIgGDk-212" style="edgeStyle=orthogonalEdgeStyle;rounded=0;orthogonalLoop=1;jettySize=auto;html=1;exitX=0;exitY=0.5;exitDx=0;exitDy=0;strokeColor=#FFFFFF;strokeWidth=2;labelBorderColor=none;fontColor=#FFFFFF;" parent="1" source="EgmdG9dv3meoYVeIgGDk-16" target="EgmdG9dv3meoYVeIgGDk-204" edge="1">
          <mxGeometry relative="1" as="geometry" />
        </mxCell>
        <mxCell id="8fZIvYmPOum_CmRB5fbJ-2" style="edgeStyle=orthogonalEdgeStyle;rounded=0;orthogonalLoop=1;jettySize=auto;html=1;exitX=0;exitY=0.5;exitDx=0;exitDy=0;entryX=0.5;entryY=0;entryDx=0;entryDy=0;strokeColor=#FFFFFF;strokeWidth=2;labelBorderColor=none;fontColor=#FFFFFF;" edge="1" parent="1" source="EgmdG9dv3meoYVeIgGDk-16" target="8fZIvYmPOum_CmRB5fbJ-1">
          <mxGeometry relative="1" as="geometry" />
        </mxCell>
        <mxCell id="8fZIvYmPOum_CmRB5fbJ-4" style="edgeStyle=orthogonalEdgeStyle;rounded=0;orthogonalLoop=1;jettySize=auto;html=1;exitX=0;exitY=0.5;exitDx=0;exitDy=0;entryX=0.5;entryY=0;entryDx=0;entryDy=0;strokeColor=#FFFFFF;strokeWidth=2;labelBorderColor=none;fontColor=#FFFFFF;" edge="1" parent="1" source="EgmdG9dv3meoYVeIgGDk-16" target="8fZIvYmPOum_CmRB5fbJ-3">
          <mxGeometry relative="1" as="geometry" />
        </mxCell>
        <mxCell id="8fZIvYmPOum_CmRB5fbJ-7" style="edgeStyle=orthogonalEdgeStyle;rounded=0;orthogonalLoop=1;jettySize=auto;html=1;exitX=0;exitY=0.5;exitDx=0;exitDy=0;entryX=0;entryY=0.5;entryDx=0;entryDy=0;strokeColor=#FFFFFF;strokeWidth=2;labelBorderColor=none;fontColor=#FFFFFF;" edge="1" parent="1" source="EgmdG9dv3meoYVeIgGDk-16" target="8fZIvYmPOum_CmRB5fbJ-5">
          <mxGeometry relative="1" as="geometry" />
        </mxCell>
        <mxCell id="EgmdG9dv3meoYVeIgGDk-16" value="管理员系统" style="rounded=0;html=1;strokeColor=#FFFFFF;strokeWidth=2;labelBorderColor=none;fontColor=#FFFFFF;fillColor=#000000;" parent="1" vertex="1">
          <mxGeometry x="564.29" y="180" width="70" height="60" as="geometry" />
        </mxCell>
        <mxCell id="EgmdG9dv3meoYVeIgGDk-28" style="edgeStyle=orthogonalEdgeStyle;rounded=0;orthogonalLoop=1;jettySize=auto;html=1;exitX=0.5;exitY=1;exitDx=0;exitDy=0;entryX=0.5;entryY=0;entryDx=0;entryDy=0;strokeColor=#FFFFFF;strokeWidth=2;labelBorderColor=none;" parent="1" source="EgmdG9dv3meoYVeIgGDk-18" target="EgmdG9dv3meoYVeIgGDk-25" edge="1">
          <mxGeometry relative="1" as="geometry" />
        </mxCell>
        <mxCell id="EgmdG9dv3meoYVeIgGDk-18" value="场地查询" style="rounded=0;html=1;strokeColor=#FFFFFF;strokeWidth=2;labelBorderColor=none;fillColor=#000000;fontColor=#FFFFFF;fillStyle=solid;" parent="1" vertex="1">
          <mxGeometry x="658.67" y="290" width="72.5" height="60" as="geometry" />
        </mxCell>
        <mxCell id="EgmdG9dv3meoYVeIgGDk-27" style="edgeStyle=orthogonalEdgeStyle;rounded=0;orthogonalLoop=1;jettySize=auto;html=1;exitX=0.5;exitY=1;exitDx=0;exitDy=0;entryX=0.5;entryY=0;entryDx=0;entryDy=0;strokeColor=#FFFFFF;strokeWidth=2;labelBorderColor=none;" parent="1" source="EgmdG9dv3meoYVeIgGDk-19" target="EgmdG9dv3meoYVeIgGDk-18" edge="1">
          <mxGeometry relative="1" as="geometry" />
        </mxCell>
        <mxCell id="EgmdG9dv3meoYVeIgGDk-34" style="edgeStyle=orthogonalEdgeStyle;rounded=0;orthogonalLoop=1;jettySize=auto;html=1;exitX=1;exitY=0.5;exitDx=0;exitDy=0;entryX=0.5;entryY=0;entryDx=0;entryDy=0;strokeColor=#FFFFFF;strokeWidth=2;" parent="1" source="EgmdG9dv3meoYVeIgGDk-19" target="EgmdG9dv3meoYVeIgGDk-30" edge="1">
          <mxGeometry relative="1" as="geometry" />
        </mxCell>
        <mxCell id="EgmdG9dv3meoYVeIgGDk-220" style="edgeStyle=orthogonalEdgeStyle;rounded=0;orthogonalLoop=1;jettySize=auto;html=1;exitX=1;exitY=0.5;exitDx=0;exitDy=0;entryX=1;entryY=0.5;entryDx=0;entryDy=0;strokeColor=#FFFFFF;strokeWidth=2;labelBorderColor=none;" parent="1" source="EgmdG9dv3meoYVeIgGDk-19" target="EgmdG9dv3meoYVeIgGDk-29" edge="1">
          <mxGeometry relative="1" as="geometry" />
        </mxCell>
        <mxCell id="EgmdG9dv3meoYVeIgGDk-19" value="用户系统" style="rounded=0;html=1;strokeColor=#FFFFFF;strokeWidth=2;labelBorderColor=none;fontColor=#FFFFFF;fillColor=#000000;" parent="1" vertex="1">
          <mxGeometry x="659.92" y="180" width="70" height="60" as="geometry" />
        </mxCell>
        <mxCell id="EgmdG9dv3meoYVeIgGDk-25" value="场地预定/取消预定" style="rounded=0;html=1;strokeColor=#FFFFFF;strokeWidth=2;labelBorderColor=none;fontColor=#FFFFFF;fillColor=#000000;fillStyle=solid;" parent="1" vertex="1">
          <mxGeometry x="639.92" y="370" width="110" height="60" as="geometry" />
        </mxCell>
        <mxCell id="EgmdG9dv3meoYVeIgGDk-219" style="edgeStyle=orthogonalEdgeStyle;rounded=0;orthogonalLoop=1;jettySize=auto;html=1;exitX=0.5;exitY=0;exitDx=0;exitDy=0;entryX=0.5;entryY=1;entryDx=0;entryDy=0;strokeColor=#FFFFFF;strokeWidth=2;labelBorderColor=none;" parent="1" source="EgmdG9dv3meoYVeIgGDk-29" target="EgmdG9dv3meoYVeIgGDk-25" edge="1">
          <mxGeometry relative="1" as="geometry" />
        </mxCell>
        <mxCell id="EgmdG9dv3meoYVeIgGDk-29" value="查询/管理个人订单" style="rounded=0;html=1;strokeColor=#FFFFFF;strokeWidth=2;labelBorderColor=none;fillColor=#000000;fontColor=#FFFFFF;" parent="1" vertex="1">
          <mxGeometry x="639.92" y="455" width="110" height="60" as="geometry" />
        </mxCell>
        <mxCell id="EgmdG9dv3meoYVeIgGDk-30" value="管理个人信息" style="rounded=0;whiteSpace=wrap;html=1;strokeColor=#FFFFFF;strokeWidth=2;fillColor=#000000;fontColor=#FFFFFF;fillStyle=solid;" parent="1" vertex="1">
          <mxGeometry x="794.92" y="290" width="80" height="60" as="geometry" />
        </mxCell>
        <mxCell id="EgmdG9dv3meoYVeIgGDk-216" style="edgeStyle=orthogonalEdgeStyle;rounded=0;orthogonalLoop=1;jettySize=auto;html=1;exitX=0.5;exitY=1;exitDx=0;exitDy=0;entryX=0.5;entryY=0;entryDx=0;entryDy=0;strokeColor=#FFFFFF;strokeWidth=2;labelBorderColor=none;fontColor=#FFFFFF;" parent="1" source="EgmdG9dv3meoYVeIgGDk-204" target="EgmdG9dv3meoYVeIgGDk-213" edge="1">
          <mxGeometry relative="1" as="geometry" />
        </mxCell>
        <mxCell id="EgmdG9dv3meoYVeIgGDk-217" style="edgeStyle=orthogonalEdgeStyle;rounded=0;orthogonalLoop=1;jettySize=auto;html=1;exitX=0;exitY=0.5;exitDx=0;exitDy=0;entryX=0;entryY=0.5;entryDx=0;entryDy=0;strokeColor=#FFFFFF;strokeWidth=2;labelBorderColor=none;fontColor=#FFFFFF;" parent="1" source="EgmdG9dv3meoYVeIgGDk-204" target="EgmdG9dv3meoYVeIgGDk-214" edge="1">
          <mxGeometry relative="1" as="geometry" />
        </mxCell>
        <mxCell id="EgmdG9dv3meoYVeIgGDk-204" value="管理场地信息" style="rounded=0;html=1;strokeColor=#FFFFFF;strokeWidth=2;labelBorderColor=none;fontColor=#FFFFFF;fillColor=#000000;" parent="1" vertex="1">
          <mxGeometry x="468.67" y="290" width="82.5" height="60" as="geometry" />
        </mxCell>
        <mxCell id="EgmdG9dv3meoYVeIgGDk-205" value="查看预定情况&lt;br&gt;查看统计信息" style="rounded=0;html=1;strokeColor=#FFFFFF;strokeWidth=2;labelBorderColor=none;fontColor=#FFFFFF;fillColor=#000000;" parent="1" vertex="1">
          <mxGeometry x="558.67" y="290" width="81.25" height="60" as="geometry" />
        </mxCell>
        <mxCell id="EgmdG9dv3meoYVeIgGDk-213" value="修改场地信息" style="rounded=0;html=1;strokeColor=#FFFFFF;strokeWidth=2;labelBorderColor=none;fontColor=#FFFFFF;fillColor=#000000;" parent="1" vertex="1">
          <mxGeometry x="468.67" y="370" width="82.5" height="30" as="geometry" />
        </mxCell>
        <mxCell id="EgmdG9dv3meoYVeIgGDk-214" value="添加新场地" style="rounded=0;html=1;strokeColor=#FFFFFF;strokeWidth=2;labelBorderColor=none;fontColor=#FFFFFF;fillColor=#000000;" parent="1" vertex="1">
          <mxGeometry x="468.67" y="420" width="82.5" height="25" as="geometry" />
        </mxCell>
        <mxCell id="8fZIvYmPOum_CmRB5fbJ-1" value="修改管理员信息" style="rounded=0;html=1;strokeColor=#FFFFFF;strokeWidth=2;labelBorderColor=none;fontColor=#FFFFFF;fillColor=#000000;" vertex="1" parent="1">
          <mxGeometry x="348.67" y="290" width="92.5" height="60" as="geometry" />
        </mxCell>
        <mxCell id="8fZIvYmPOum_CmRB5fbJ-3" value="用户充值" style="rounded=0;html=1;strokeColor=#FFFFFF;strokeWidth=2;labelBorderColor=none;fontColor=#FFFFFF;fillColor=#000000;" vertex="1" parent="1">
          <mxGeometry x="268.67" y="290" width="62.5" height="60" as="geometry" />
        </mxCell>
        <mxCell id="8fZIvYmPOum_CmRB5fbJ-5" value="用户违约登记" style="rounded=0;html=1;strokeColor=#FFFFFF;strokeWidth=2;labelBorderColor=none;fontColor=#FFFFFF;fillColor=#000000;" vertex="1" parent="1">
          <mxGeometry x="259.92" y="385" width="80" height="60" as="geometry" />
        </mxCell>
        <mxCell id="8fZIvYmPOum_CmRB5fbJ-11" style="edgeStyle=orthogonalEdgeStyle;rounded=0;orthogonalLoop=1;jettySize=auto;html=1;exitX=0.75;exitY=1;exitDx=0;exitDy=0;entryX=0.5;entryY=0;entryDx=0;entryDy=0;strokeColor=#FFFFFF;strokeWidth=2;labelBorderColor=none;" edge="1" parent="1" source="EgmdG9dv3meoYVeIgGDk-13" target="EgmdG9dv3meoYVeIgGDk-19">
          <mxGeometry relative="1" as="geometry">
            <mxPoint x="639" y="160" as="sourcePoint" />
            <mxPoint x="609" y="190" as="targetPoint" />
            <Array as="points">
              <mxPoint x="657" y="170" />
              <mxPoint x="695" y="170" />
            </Array>
          </mxGeometry>
        </mxCell>
      </root>
    </mxGraphModel>
  </diagram>
</mxfile>
